<?xml version="1.0" encoding="UTF-8" standalone="no"?>
<svg
   width="240"
   height="246"
   viewBox="0 0 240 246"
   xmlns="http://www.w3.org/2000/svg"
    xmlns:svg="http://www.w3.org/2000/svg"
   preserveAspectRatio="xMidYMid meet">
   <defs/>
   <g
      transform="translate(120, 123)">
      <circle
         cx="0"
         cy="0"
         r="117.6"
         fill="#c6c6c6"
         stroke="#9ca3af"
         stroke-width="1.2" />
      <circle
         cx="0"
         cy="0"
         r="105.6"
         fill="#ffffff"
         stroke="#111827"
         stroke-width="1.7999999999999998" />
      <g transform="rotate(45)" style="transition: transform 0.6s ease-in-out;">
         <g transform="scale(2.4)">
            <path d="M 0 -30 Q 8 -25 8 0 L 8 23 Q 8 25 0 25 Q -8 25 -8 23 L -8 0 Q -8 -25 0 -30 Z" fill="#F2495C" stroke="#111827" stroke-width="0.6" />
         </g>
      </g>
      <g>
         <g font-family="system-ui, sans-serif" font-size="14.399999999999999" fill="#111827" text-anchor="middle" dominant-baseline="central" font-weight="700">
            <text x="0" y="-96">N</text>
            <text x="96" y="-5.878304635907295e-15">E</text>
            <text x="1.175660927181459e-14" y="96">S</text>
            <text x="-96" y="1.7634913907721887e-14">W</text>
         </g>
         <line x1="13.470303037109323" y1="-102.31710969377724" x2="12.530514453124951" y2="-95.1787066918858" stroke="#111827" stroke-width="1.2" />
         <line x1="26.71012545458014" y1="-99.68354527303185" x2="24.84662832984199" y2="-92.72887932375056" stroke="#111827" stroke-width="1.2" />
         <line x1="39.49293022007727" y1="-95.3443677551648" x2="36.73760950704862" y2="-88.69243512108352" stroke="#111827" stroke-width="1.2" />
         <line x1="51.599999999999994" y1="-89.37382167055408" x2="47.99999999999999" y2="-83.13843876330611" stroke="#111827" stroke-width="1.2" />
         <line x1="62.82417947369997" y1="-81.87406471805546" x2="58.44109718483718" y2="-76.16192066795858" stroke="#111827" stroke-width="1.2" />
         <line x1="72.9734198184517" y1="-72.97341981845172" x2="67.88225099390856" y2="-67.88225099390857" stroke="#111827" stroke-width="1.2" />
         <line x1="81.87406471805546" y1="-62.82417947369997" x2="76.16192066795858" y2="-58.44109718483718" stroke="#111827" stroke-width="1.2" />
         <line x1="89.37382167055407" y1="-51.600000000000016" x2="83.13843876330611" y2="-48.000000000000014" stroke="#111827" stroke-width="1.2" />
         <line x1="95.3443677551648" y1="-39.49293022007727" x2="88.69243512108352" y2="-36.737609507048624" stroke="#111827" stroke-width="1.2" />
         <line x1="99.68354527303185" y1="-26.71012545458014" x2="92.72887932375056" y2="-24.84662832984199" stroke="#111827" stroke-width="1.2" />
         <line x1="102.31710969377724" y1="-13.470303037109337" x2="95.1787066918858" y2="-12.530514453124965" stroke="#111827" stroke-width="1.2" />
         <line x1="102.31710969377724" y1="13.470303037109304" x2="95.17870669188581" y2="12.530514453124933" stroke="#111827" stroke-width="1.2" />
         <line x1="99.68354527303185" y1="26.71012545458015" x2="92.72887932375056" y2="24.846628329842" stroke="#111827" stroke-width="1.2" />
         <line x1="95.3443677551648" y1="39.49293022007726" x2="88.69243512108352" y2="36.73760950704862" stroke="#111827" stroke-width="1.2" />
         <line x1="89.37382167055408" y1="51.59999999999998" x2="83.13843876330611" y2="47.99999999999998" stroke="#111827" stroke-width="1.2" />
         <line x1="81.87406471805546" y1="62.82417947369997" x2="76.16192066795858" y2="58.44109718483718" stroke="#111827" stroke-width="1.2" />
         <line x1="72.97341981845172" y1="72.9734198184517" x2="67.88225099390857" y2="67.88225099390856" stroke="#111827" stroke-width="1.2" />
         <line x1="62.82417947369995" y1="81.87406471805548" x2="58.44109718483716" y2="76.16192066795858" stroke="#111827" stroke-width="1.2" />
         <line x1="51.599999999999994" y1="89.37382167055408" x2="47.99999999999999" y2="83.13843876330611" stroke="#111827" stroke-width="1.2" />
         <line x1="39.49293022007728" y1="95.3443677551648" x2="36.73760950704863" y2="88.69243512108352" stroke="#111827" stroke-width="1.2" />
         <line x1="26.71012545458017" y1="99.68354527303184" x2="24.84662832984202" y2="92.72887932375055" stroke="#111827" stroke-width="1.2" />
         <line x1="13.470303037109323" y1="102.31710969377724" x2="12.530514453124951" y2="95.1787066918858" stroke="#111827" stroke-width="1.2" />
         <line x1="-13.470303037109296" y1="102.31710969377724" x2="-12.530514453124926" y2="95.17870669188581" stroke="#111827" stroke-width="1.2" />
         <line x1="-26.7101254545801" y1="99.68354527303187" x2="-24.846628329841955" y2="92.72887932375056" stroke="#111827" stroke-width="1.2" />
         <line x1="-39.49293022007721" y1="95.34436775516481" x2="-36.73760950704857" y2="88.69243512108355" stroke="#111827" stroke-width="1.2" />
         <line x1="-51.600000000000016" y1="89.37382167055407" x2="-48.000000000000014" y2="83.13843876330611" stroke="#111827" stroke-width="1.2" />
         <line x1="-62.82417947369997" y1="81.87406471805546" x2="-58.44109718483718" y2="76.16192066795858" stroke="#111827" stroke-width="1.2" />
         <line x1="-72.9734198184517" y1="72.97341981845172" x2="-67.88225099390856" y2="67.88225099390857" stroke="#111827" stroke-width="1.2" />
         <line x1="-81.87406471805545" y1="62.8241794737" x2="-76.16192066795855" y2="58.441097184837204" stroke="#111827" stroke-width="1.2" />
         <line x1="-89.37382167055405" y1="51.600000000000044" x2="-83.1384387633061" y2="48.00000000000004" stroke="#111827" stroke-width="1.2" />
         <line x1="-95.34436775516481" y1="39.49293022007724" x2="-88.69243512108353" y2="36.73760950704859" stroke="#111827" stroke-width="1.2" />
         <line x1="-99.68354527303185" y1="26.71012545458013" x2="-92.72887932375056" y2="24.84662832984198" stroke="#111827" stroke-width="1.2" />
         <line x1="-102.31710969377724" y1="13.470303037109328" x2="-95.1787066918858" y2="12.530514453124956" stroke="#111827" stroke-width="1.2" />
         <line x1="-102.31710969377724" y1="-13.47030303710938" x2="-95.1787066918858" y2="-12.530514453125004" stroke="#111827" stroke-width="1.2" />
         <line x1="-99.68354527303184" y1="-26.71012545458018" x2="-92.72887932375055" y2="-24.846628329842027" stroke="#111827" stroke-width="1.2" />
         <line x1="-95.34436775516478" y1="-39.49293022007729" x2="-88.69243512108352" y2="-36.73760950704864" stroke="#111827" stroke-width="1.2" />
         <line x1="-89.37382167055407" y1="-51.600000000000016" x2="-83.13843876330611" y2="-48.000000000000014" stroke="#111827" stroke-width="1.2" />
         <line x1="-81.87406471805546" y1="-62.824179473699964" x2="-76.16192066795858" y2="-58.441097184837176" stroke="#111827" stroke-width="1.2" />
         <line x1="-72.97341981845172" y1="-72.97341981845169" x2="-67.88225099390857" y2="-67.88225099390854" stroke="#111827" stroke-width="1.2" />
         <line x1="-62.8241794737" y1="-81.87406471805545" x2="-58.441097184837204" y2="-76.16192066795855" stroke="#111827" stroke-width="1.2" />
         <line x1="-51.600000000000044" y1="-89.37382167055404" x2="-48.00000000000004" y2="-83.13843876330608" stroke="#111827" stroke-width="1.2" />
         <line x1="-39.49293022007724" y1="-95.34436775516481" x2="-36.737609507048596" y2="-88.69243512108353" stroke="#111827" stroke-width="1.2" />
         <line x1="-26.710125454580137" y1="-99.68354527303185" x2="-24.846628329841984" y2="-92.72887932375056" stroke="#111827" stroke-width="1.2" />
         <line x1="-13.470303037109334" y1="-102.31710969377724" x2="-12.530514453124962" y2="-95.1787066918858" stroke="#111827" stroke-width="1.2" />
         <line x1="72.9734198184517" y1="-72.97341981845172" x2="61.09402589451769" y2="-61.094025894517706" stroke="#111827" stroke-width="2.4" />
         <line x1="72.97341981845172" y1="72.9734198184517" x2="61.094025894517706" y2="61.09402589451769" stroke="#111827" stroke-width="2.4" />
         <line x1="-72.9734198184517" y1="72.97341981845172" x2="-61.09402589451769" y2="61.09402589451771" stroke="#111827" stroke-width="2.4" />
         <line x1="-72.97341981845172" y1="-72.97341981845169" x2="-61.09402589451771" y2="-61.094025894517685" stroke="#111827" stroke-width="2.4" />
      </g>
      <g transform="rotate(90)" style="transition: transform 0.6s ease-in-out;">
         <g>
            <polygon points="0,-48 10.78200899785744,-107.46044985002679 0,-102 -10.78200899785744,-107.46044985002679" fill="#FADE2A" stroke="#111827" />
            <text x="0" y="-87" font-family="system-ui, sans-serif" font-size="9" fill="#111827" text-anchor="middle" font-weight="600">A</text>
         </g>
      </g>
      <g transform="rotate(120)" style="transition: transform 0.6s ease-in-out;">
         <g>
            <polygon points="0,-48 10.78200899785744,-107.46044985002679 0,-102 -10.78200899785744,-107.46044985002679" fill="#5794F2" stroke="#111827" />
            <text x="0" y="-87" font-family="system-ui, sans-serif" font-size="9" fill="#111827" text-anchor="middle" font-weight="600">T</text>
         </g>
      </g>
   </g>
</svg>